<svg xmlns="http://www.w3.org/2000/svg" viewBox="0 0 268 268"><defs><style>.cls-1{fill:none;stroke:#000;stroke-miterlimit:10;}</style></defs><title>Asset 7</title><g id="Layer_2" data-name="Layer 2"><g id="Layer_1-2" data-name="Layer 1"><path d="M87.62,81.49a36.63,36.63,0,1,0,36.64,36.63A36.63,36.63,0,0,0,87.62,81.49Zm0,66.82a30.19,30.19,0,1,1,30.19-30.19A30.22,30.22,0,0,1,87.62,148.31Z"/><polygon points="188.16 186.39 188.16 186.39 188.16 186.39 228.56 186.39 228.56 186.39 188.16 186.39"/><polygon points="185.69 179.94 188.16 186.39 188.16 186.39 185.69 179.94 185.69 179.94"/><polygon points="148.14 186.39 107.74 186.39 107.74 186.39 148.14 186.39 148.14 186.39 148.14 186.39"/><rect x="148.14" y="186.39" width="40.01"/><polygon points="150.61 179.94 148.14 186.39 148.14 186.39 150.61 179.94 150.61 179.94"/><polygon points="178.79 179.94 157.51 179.94 150.61 179.94 148.14 186.39 188.16 186.39 185.69 179.94 178.79 179.94"/><polygon points="188.35 81.21 168.15 134.05 147.95 81.21 107.74 186.39 148.14 186.39 150.61 179.94 117.11 179.94 147.95 99.26 164.7 143.08 168.15 152.1 178.79 179.94 185.69 179.94 171.6 143.08 188.35 99.26 219.19 179.94 185.69 179.94 188.16 186.39 228.56 186.39 188.35 81.21"/><path d="M107.12,199.27a.36.36,0,0,1,.3-.35,16.4,16.4,0,0,1,2.21-.14,4.17,4.17,0,0,1,2.84.84,2.72,2.72,0,0,1,.89,2.12,3,3,0,0,1-.78,2.16,4.19,4.19,0,0,1-3.1,1.12c-.23,0-.46,0-.66,0a.35.35,0,0,0-.39.35v3.29a.35.35,0,0,1-.35.35h-.61a.35.35,0,0,1-.35-.35Zm1.31,4.3a.36.36,0,0,0,.3.35,6.14,6.14,0,0,0,.78,0c1.58,0,2.54-.76,2.54-2.16s-1-2-2.39-2a7.75,7.75,0,0,0-.93.05.36.36,0,0,0-.3.35Z"/><path d="M116.1,209.5l-2.1,5.36a.37.37,0,0,1-.33.22h-.49a.34.34,0,0,1-.32-.48l6.37-15.8a.35.35,0,0,1,.33-.22h.7a.35.35,0,0,1,.32.22l6.33,15.8a.35.35,0,0,1-.32.48h-.49a.35.35,0,0,1-.33-.22l-2.15-5.36a.35.35,0,0,0-.33-.22h-6.86A.35.35,0,0,0,116.1,209.5Zm6.52-1.23a.35.35,0,0,0,.33-.48l-2.14-5.32a26.74,26.74,0,0,1-.9-2.62h0c-.25.83-.52,1.57-.91,2.55l-2.15,5.39a.34.34,0,0,0,.32.48Z"/><path d="M131.06,199.58h-5.44a.35.35,0,0,1-.35-.35v-.3a.35.35,0,0,1,.35-.35h12.79a.35.35,0,0,1,.35.35v.3a.35.35,0,0,1-.35.35H133a.35.35,0,0,0-.35.36v14.79a.36.36,0,0,1-.36.35h-.49a.35.35,0,0,1-.35-.35V199.94A.36.36,0,0,0,131.06,199.58Z"/><path d="M148.59,206.88H142a.35.35,0,0,0-.35.35v6.5a.35.35,0,0,0,.35.35h7.48a.35.35,0,0,1,.35.35v.3a.35.35,0,0,1-.35.35h-8.68a.35.35,0,0,1-.35-.35v-15.8a.35.35,0,0,1,.35-.35H149a.35.35,0,0,1,.35.35v.3a.35.35,0,0,1-.35.35H142a.36.36,0,0,0-.35.36v5.58a.36.36,0,0,0,.35.36h6.64a.35.35,0,0,1,.36.35v.3A.36.36,0,0,1,148.59,206.88Z"/><path d="M153.27,198.58h.49a.35.35,0,0,1,.35.35v14.8a.36.36,0,0,0,.36.35h7.47a.35.35,0,0,1,.35.35v.3a.35.35,0,0,1-.35.35h-8.67a.36.36,0,0,1-.36-.35v-15.8A.36.36,0,0,1,153.27,198.58Z"/><path d="M176.66,195.62h6.43v1.29H178.2v4h4.52v1.27H178.2v5.4h-1.54Z"/><path d="M186.73,196.8a1.21,1.21,0,0,1-1.21,1.24,1.19,1.19,0,0,1-1.12-1.24,1.23,1.23,0,0,1,1.18-1.24A1.2,1.2,0,0,1,186.73,196.8Zm-1.87,17.94V200.89h1.41v13.85Z"/><path d="M191.35,194.09h1.41v20.65h-1.41Z"/><path d="M197.84,204.24c0-1.13,0-2.22-.12-3.35h1.33l.11,2.69h.06a5.41,5.41,0,0,1,5-3,4.64,4.64,0,0,1,4.35,3.28h.06a6.27,6.27,0,0,1,1.44-1.93,5.28,5.28,0,0,1,3.78-1.35c1.3,0,5,.69,5,6.46v7.73h-1.41V207c0-3.49-1.5-5.28-4-5.28a4.55,4.55,0,0,0-4,2.8,3.8,3.8,0,0,0-.28,1.35v8.83h-1.42v-8.42c0-2.72-1.47-4.56-3.8-4.56a4.89,4.89,0,0,0-4.3,3.2,3.74,3.74,0,0,0-.26,1.36v8.42h-1.41Z"/><path d="M223.13,212.86a6.68,6.68,0,0,0,3.46,1c2.42,0,3.49-1.27,3.49-2.68,0-1.62-1.1-2.4-3.26-3.09-2.51-.81-3.75-2.1-3.75-3.75,0-2,1.56-3.83,4.55-3.83a6,6,0,0,1,3.35.92l-.55,1.15a5.33,5.33,0,0,0-3-.89c-1.91,0-2.92,1.15-2.92,2.48,0,1.56,1.19,2.16,3.23,2.85,2.54.87,3.78,2,3.78,4,0,2.25-1.85,4-5,4a7.71,7.71,0,0,1-3.86-1Z"/><rect class="cls-1" x="0.5" y="0.5" width="267" height="267"/></g></g></svg>